<svg width="48" height="48" viewBox="0 0 48 48" fill="none" xmlns="http://www.w3.org/2000/svg">
<mask id="mask0_23_963" style="mask-type:alpha" maskUnits="userSpaceOnUse" x="0" y="0" width="48" height="48">
<circle cx="24" cy="24" r="24" fill="#C4C4C4"/>
</mask>
<g mask="url(#mask0_23_963)">
<circle cx="24" cy="24" r="24" fill="#CCD6DD"/>
<path d="M23.9007 28.6651C26.3184 28.6651 29.0252 28.3975 30.7524 26.424C32.2048 24.7646 32.6759 22.1988 32.1905 18.5874C31.5125 13.5467 28.4132 10.5366 23.9007 10.5366C19.3882 10.5366 16.2888 13.5467 15.6108 18.591C15.1255 22.1988 15.5965 24.7646 17.0489 26.424C18.7761 28.3993 21.4829 28.6651 23.9007 28.6651ZM38.6747 41.9046C37.1098 35.6132 31.0343 31.2167 23.9007 31.2167C16.767 31.2167 10.6915 35.6132 9.12665 41.9046C8.81975 43.1394 9.07669 44.4027 9.83145 45.3662C10.5594 46.294 11.6871 46.8293 12.9236 46.8293L23.9007 51.5122L34.8777 46.8293C36.1142 46.8293 37.2419 46.294 37.9699 45.3662C38.7264 44.4027 38.9816 43.1412 38.6729 41.9046H38.6747Z" fill="#657786"/>
</g>
</svg>